<?xml version="1.0" encoding="UTF-8" standalone="no"?>
<svg
   xmlns:svg="http://www.w3.org/2000/svg"
   xmlns="http://www.w3.org/2000/svg"
   version="1.0"
   width="1000"
   height="301.354"
   viewBox="0 0 1000 301.35401"
   id="svg1936">
  <g transform="translate(0,-5.6843e-14)">
    <path
       d="M 620.38044,235.66818 C 567.70704,275.20289 489.88347,301.18559 421.3774,301.18559 C 330.36194,301.18559 247.08715,267.0312 184.36469,212.2578 C 177.37265,206.04254 183.80453,198.16357 191.97934,202.9437 C 260.77498,242.30308 345.60603,267.66164 433.3983,267.66164 C 494.23568,267.66164 561.14678,253.54086 622.33919,223.69146 C 633.40366,218.15147 642.93845,229.94553 620.38044,235.66818 z "
       id="path8"
       style="fill:#ffffff" />
    <path
       d="M 644.25583,208.02851 C 634.67846,195.77888 610.46983,198.9785 599.60808,201.75212 C 588.90092,204.47755 585.7354,195.93848 595.19324,189.16985 C 621.01593,168.28559 660.40631,172.936 668.2117,186.54507 C 675.9657,200.05665 665.9582,267.97242 632.6929,294.34591 C 623.4022,302.23408 615.2696,297.87711 618.8972,288.86457 C 629.0403,263.94058 653.93204,220.29024 644.25583,208.02851 z "
       id="path10"
       style="fill:#ffffff" />
    <path
       d="M 578.02168,32.779268 L 578.02168,60.403213 C 578.02168,64.497973 581.11543,68.093831 585.23663,68.093831 L 730.21112,68.093831 C 734.8389,68.093831 738.59746,64.411694 738.59746,59.763667 L 738.59746,36.204708 C 738.59746,32.047829 734.95135,29.056503 730.10643,29.056503 L 662.97508,29.056503 C 658.94332,29.056503 654.90328,32.134167 654.90328,37.881698 L 654.90328,51.518468 L 585.0414,51.518468 C 581.21601,51.518468 578.02168,47.874059 578.02168,43.93006 L 578.02168,32.779268 z "
       id="path12"
       style="fill:#ffffff" />
    <path
       d="M 858.8209,1.4687638 L 782.94729,1.4687638 C 778.64306,1.4687638 775.14508,4.8750356 775.14508,9.076148 L 775.14508,233.56236 C 775.14508,237.50645 778.55844,241.25075 782.85212,241.25075 L 853.52918,241.25075 C 857.98556,241.25075 861.54782,237.64673 861.54782,233.56236 L 861.54782,210.94307 C 861.54782,210.82242 860.26791,210.72161 860.02352,210.72161 L 802.1951,210.72161 L 802.1951,201.51892 L 859.49825,201.51892 C 863.98117,201.51892 867.06795,197.9046 867.06795,193.84045 L 867.06795,134.6561 C 867.06795,130.56446 864.05366,126.84964 859.80169,126.84964 L 802.1951,126.84964 L 802.1951,39.051196 L 861.38405,39.051196 C 865.68775,39.051196 869.13652,35.553533 869.13652,31.390642 L 869.13652,9.076148 C 869.13652,4.9612386 865.68775,1.4687638 858.8209,1.4687638 z "
       id="path14"
       style="fill:#ffffff" />
    <path
       d="M 946.17655,205.6623 C 943.48344,203.02115 941.73645,201.45822 941.9019,198.95429 L 941.9019,34.88489 C 941.9019,30.772498 938.79748,27.064493 934.56382,27.064493 L 910.66021,27.064493 C 906.45339,27.064493 902.76897,30.685978 902.76897,34.88489 L 902.76897,241.25774 C 902.76897,245.3627 906.51271,249.00274 910.73959,249.00274 L 933.67903,249.00274 C 937.71775,249.00274 942.11057,245.38269 945.29093,241.62138 L 1000,175.15119 L 1000,249.00274 L 999.97419,249.00274 L 1000,249.00274 L 1000,27.064493 L 961.98293,75.098533 L 946.17655,205.6623 z "
       id="path16"
       style="fill:#ffffff" />
    <path
       d="M 0,32.353141 L 0,59.969065 C 0,64.051831 3.0903803,67.648925 7.197853,67.648925 L 152.17989,67.648925 C 156.82676,67.648925 160.58532,63.961669 160.58532,59.32739 L 160.58532,35.766685 C 160.58532,31.609807 156.93874,28.610444 152.10441,28.610444 L 84.960709,28.610444 C 80.922336,28.610444 76.886202,31.694168 76.886202,37.446353 L 76.886202,51.071549 L 7.0141558,51.071549 C 3.1844002,51.071549 0,47.428147 0,43.483 L 0,32.353141 z "
       id="path28"
       style="fill:#ffffff" />
    <path
       d="M 85.478289,127.37873 L 7.197853,127.37873 C 3.0944832,127.37873 0,130.9765 0,135.09389 L 0,158.04375 C 0,162.04752 3.0944832,165.70773 7.197853,165.70773 L 85.478289,165.70773 L 85.478289,194.30486 L 42.86948,194.30486 C 38.775155,194.30486 35.685631,197.90287 35.685631,202.02048 L 35.685631,224.68228 C 35.685631,228.79989 38.775155,232.39769 42.86948,232.39769 L 85.478289,232.39769 L 85.478289,260.87138 C 85.478289,265.03492 88.590802,268.52134 92.803977,268.52134 L 116.6824,268.52134 C 120.89558,268.52134 124.00809,265.03492 124.00809,260.87138 L 124.00809,232.39769 L 151.81668,232.39769 C 155.9151,232.39769 159.00463,228.79989 159.00463,224.68228 L 159.00463,202.02048 C 159.00463,197.90287 155.9151,194.30486 151.81668,194.30486 L 124.00809,194.30486 L 124.00809,165.70773 L 152.10441,165.70773 C 156.21863,165.70773 159.30774,162.04752 159.30774,158.04375 L 159.30774,135.09389 C 159.30774,130.9765 156.21863,127.37873 152.10441,127.37873 L 124.00809,127.37873 L 124.00809,39.58726 C 124.00809,35.440377 120.89558,31.953741 116.6824,31.953741 L 92.803977,31.953741 C 88.590802,31.953741 85.478289,35.440377 85.478289,39.58726 L 85.478289,127.37873 z "
       id="path30"
       style="fill:#ffffff" />
    <path
       d="M 358.91141,126.84271 L 328.68177,126.84271 L 328.68177,39.051196 L 364.43152,39.051196 C 368.69982,39.051196 371.81232,35.553533 371.81232,31.390642 L 371.81232,9.076148 C 371.81232,4.9612386 368.73564,1.4687638 364.51634,1.4687638 L 263.16623,1.4687638 C 258.86199,1.4687638 255.374,4.8750356 255.374,9.076148 L 255.374,31.390642 C 255.374,35.553533 258.86199,39.051196 263.16623,39.051196 L 298.85694,39.051196 L 298.85694,233.14049 C 298.85694,237.57666 302.81392,241.25075 307.47135,241.25075 L 358.91141,241.25075 C 363.56884,241.25075 367.52582,237.57666 367.52582,233.14049 L 367.52582,134.95247 C 367.52582,130.52326 363.56884,126.84271 358.91141,126.84271 z "
       id="path32"
       style="fill:#ffffff" />
    <path
       d="M 488.24776,242.18088 L 488.24776,220.84721 C 488.24776,216.28157 483.96082,213.9165 479.84077,213.9165 L 441.23176,213.9165 L 441.23176,39.051196 L 494.48069,39.051196 C 498.78492,39.051196 502.27301,35.553533 502.27301,31.390642 L 502.27301,9.076148 C 502.27301,4.9612386 498.78492,1.4687638 494.48069,1.4687638 L 388.92839,1.4687638 C 384.62414,1.4687638 381.0865,4.9612386 381.0865,9.076148 L 381.0865,31.390642 C 381.0865,35.553533 384.62414,39.051196 388.92839,39.051196 L 409.80739,39.051196 L 409.80739,220.11944 C 409.80739,234.25178 420.75395,242.18088 435.0705,242.18088 L 488.24776,242.18088 z "
       id="path34"
       style="fill:#ffffff" />
    <path
       d="M 553.79723,168.20015 L 553.79723,242.16089 L 599.73969,242.16089 C 614.05644,242.16089 624.98338,234.2501 624.98338,220.10618 L 624.98338,190.26747 C 624.98338,176.12326 614.05644,168.20015 599.73969,168.20015 L 553.79723,168.20015 z M 553.79723,1.4687639 L 553.79723,39.051196 L 595.32731,39.051196 C 599.61173,39.051196 603.09982,35.553533 603.09982,31.390642 L 603.09982,9.076148 C 603.09982,4.9612386 599.61173,1.4687639 595.32731,1.4687639 L 553.79723,1.4687639 z M 553.79723,75.41747 L 553.79723,131.89635 L 603.54404,131.89635 C 617.86079,131.89635 628.77773,123.98648 628.77773,109.8358 L 628.77773,97.486978 C 628.77773,83.335239 617.86079,75.41747 603.54404,75.41747 L 553.79723,75.41747 z M 524.01174,1.4687638 L 499.87462,1.4687638 C 495.57999,1.4687638 492.09232,4.9612386 492.09232,9.076148 L 492.09232,233.55566 C 492.09232,237.65355 495.57999,241.15136 499.87462,241.15136 L 598.45978,241.15136 C 634.65936,241.15136 660.60689,219.75312 660.60689,188.50824 L 660.60689,173.85033 C 660.60689,153.46162 648.3949,137.71391 628.77773,131.88967 C 643.09531,124.65451 650.73613,111.38022 650.73613,93.723297 L 650.73613,87.694608 C 650.73613,56.450276 634.65936,1.4687638 580.72683,1.4687638 L 524.01174,1.4687638 z "
       id="path40"
       style="fill:#ffffff" />
  </g>
</svg>